TITLE ""
FILE "DISC1Track04.mp3" MP3
  TRACK 01 AUDIO
    TITLE "DISC1Track04_01"
    INDEX 01 00:00:00
  TRACK 02 AUDIO
    TITLE "DISC1Track04_02"
    INDEX 01 00:02:11
  TRACK 03 AUDIO
    TITLE "DISC1Track04_03"
    INDEX 01 00:02:41
  TRACK 04 AUDIO
    TITLE "DISC1Track04_04"
    INDEX 01 00:04:24
  TRACK 05 AUDIO
    TITLE "DISC1Track04_05"
    INDEX 01 00:06:09
  TRACK 06 AUDIO
    TITLE "DISC1Track04_06"
    INDEX 01 00:07:59
  TRACK 07 AUDIO
    TITLE "DISC1Track04_07"
    INDEX 01 00:08:16
  TRACK 08 AUDIO
    TITLE "DISC1Track04_08"
    INDEX 01 00:09:56
  TRACK 09 AUDIO
    TITLE "DISC1Track04_09"
    INDEX 01 00:11:49
  TRACK 10 AUDIO
    TITLE "DISC1Track04_10"
    INDEX 01 00:13:29
  TRACK 11 AUDIO
    TITLE "DISC1Track04_11"
    INDEX 01 00:13:60
  TRACK 12 AUDIO
    TITLE "DISC1Track04_12"
    INDEX 01 00:15:37
  TRACK 13 AUDIO
    TITLE "DISC1Track04_13"
    INDEX 01 00:17:26
  TRACK 14 AUDIO
    TITLE "DISC1Track04_14"
    INDEX 01 00:19:08
  TRACK 15 AUDIO
    TITLE "DISC1Track04_15"
    INDEX 01 00:19:41
  TRACK 16 AUDIO
    TITLE "DISC1Track04_16"
    INDEX 01 00:21:20
  TRACK 17 AUDIO
    TITLE "DISC1Track04_17"
    INDEX 01 00:23:47
  TRACK 18 AUDIO
    TITLE "DISC1Track04_18"
    INDEX 01 00:25:67
  TRACK 19 AUDIO
    TITLE "DISC1Track04_19"
    INDEX 01 00:26:23
  TRACK 20 AUDIO
    TITLE "DISC1Track04_20"
    INDEX 01 00:28:14
  TRACK 21 AUDIO
    TITLE "DISC1Track04_21"
    INDEX 01 00:30:13
  TRACK 22 AUDIO
    TITLE "DISC1Track04_22"
    INDEX 01 00:31:68
  TRACK 23 AUDIO
    TITLE "DISC1Track04_23"
    INDEX 01 00:32:32
  TRACK 24 AUDIO
    TITLE "DISC1Track04_24"
    INDEX 01 00:33:74
  TRACK 25 AUDIO
    TITLE "DISC1Track04_25"
    INDEX 01 00:36:18
  TRACK 26 AUDIO
    TITLE "DISC1Track04_26"
    INDEX 01 00:38:19
  TRACK 27 AUDIO
    TITLE "DISC1Track04_27"
    INDEX 01 00:38:52
  TRACK 28 AUDIO
    TITLE "DISC1Track04_28"
    INDEX 01 00:40:43
  TRACK 29 AUDIO
    TITLE "DISC1Track04_29"
    INDEX 01 00:42:44
  TRACK 30 AUDIO
    TITLE "DISC1Track04_30"
    INDEX 01 00:44:25
  TRACK 31 AUDIO
    TITLE "DISC1Track04_31"
    INDEX 01 00:44:57
  TRACK 32 AUDIO
    TITLE "DISC1Track04_32"
    INDEX 01 00:47:39
  TRACK 33 AUDIO
    TITLE "DISC1Track04_33"
    INDEX 01 00:50:20
  TRACK 34 AUDIO
    TITLE "DISC1Track04_34"
    INDEX 01 00:52:74
  TRACK 35 AUDIO
    TITLE "DISC1Track04_35"
    INDEX 01 00:53:18
  TRACK 36 AUDIO
    TITLE "DISC1Track04_36"
    INDEX 01 00:56:03
  TRACK 37 AUDIO
    TITLE "DISC1Track04_37"
    INDEX 01 00:58:53
  TRACK 38 AUDIO
    TITLE "DISC1Track04_38"
    INDEX 01 01:01:18
  TRACK 39 AUDIO
    TITLE "DISC1Track04_39"
    INDEX 01 01:01:49
  TRACK 40 AUDIO
    TITLE "DISC1Track04_40"
    INDEX 01 01:03:66
  TRACK 41 AUDIO
    TITLE "DISC1Track04_41"
    INDEX 01 01:06:15
  TRACK 42 AUDIO
    TITLE "DISC1Track04_42"
    INDEX 01 01:08:30
  TRACK 43 AUDIO
    TITLE "DISC1Track04_43"
    INDEX 01 01:08:61
  TRACK 44 AUDIO
    TITLE "DISC1Track04_44"
    INDEX 01 01:10:13
  TRACK 45 AUDIO
    TITLE "DISC1Track04_45"
    INDEX 01 01:11:61
  TRACK 46 AUDIO
    TITLE "DISC1Track04_46"
    INDEX 01 01:13:27
  TRACK 47 AUDIO
    TITLE "DISC1Track04_47"
    INDEX 01 01:13:58
  TRACK 48 AUDIO
    TITLE "DISC1Track04_48"
    INDEX 01 01:17:34
  TRACK 49 AUDIO
    TITLE "DISC1Track04_49"
    INDEX 01 01:20:35
  TRACK 50 AUDIO
    TITLE "DISC1Track04_50"
    INDEX 01 01:23:19
  TRACK 51 AUDIO
    TITLE "DISC1Track04_51"
    INDEX 01 01:23:49
  TRACK 52 AUDIO
    TITLE "DISC1Track04_52"
    INDEX 01 01:25:52
  TRACK 53 AUDIO
    TITLE "DISC1Track04_53"
    INDEX 01 01:28:11
  TRACK 54 AUDIO
    TITLE "DISC1Track04_54"
    INDEX 01 01:30:31
  TRACK 55 AUDIO
    TITLE "DISC1Track04_55"
    INDEX 01 01:30:61
  TRACK 56 AUDIO
    TITLE "DISC1Track04_56"
    INDEX 01 01:33:30
  TRACK 57 AUDIO
    TITLE "DISC1Track04_57"
    INDEX 01 01:36:02
  TRACK 58 AUDIO
    TITLE "DISC1Track04_58"
    INDEX 01 01:38:33
  TRACK 59 AUDIO
    TITLE "DISC1Track04_59"
    INDEX 01 01:38:64
  TRACK 60 AUDIO
    TITLE "DISC1Track04_60"
    INDEX 01 01:42:42
  TRACK 61 AUDIO
    TITLE "DISC1Track04_61"
    INDEX 01 01:45:45
  TRACK 62 AUDIO
    TITLE "DISC1Track04_62"
    INDEX 01 01:48:29
